<svg width="1200" height="300" viewBox="0 0 1200 300" xmlns="http://www.w3.org/2000/svg" role="img" aria-label="Rosette — a private messenger for the Chat Control era">
  <rect x="0" y="0" width="1200" height="300" fill="#0B090C"/>

  <g transform="translate(170,150) scale(2.4) translate(-50,-50)">
      <path d="M92.55 50.00L91.52 51.19L89.68 52.27L87.17 53.19L84.23 53.93L81.11 54.47L78.08 54.86L75.38 55.14L73.16 55.39L71.53 55.66L70.51 56.02L70.04 56.51L69.99 57.13L70.21 57.87L70.57 58.69L70.92 59.56L71.19 60.42L71.34 61.26L71.39 62.08L71.41 62.91L71.49 63.81L71.73 64.86L72.19 66.12L72.91 67.66L73.85 69.50L74.94 71.61L76.06 73.92L77.06 76.30L77.78 78.59L78.08 80.59L77.85 82.14L77.05 83.08L75.69 83.32L73.86 82.85L71.68 81.71L69.31 80.04L66.90 78.03L64.62 75.89L62.58 73.84L60.86 72.09L59.49 70.77L58.44 69.97L57.67 69.70L57.09 69.88L56.63 70.41L56.21 71.15L55.78 71.97L55.29 72.75L54.75 73.44L54.16 74.02L53.53 74.55L52.88 75.13L52.22 75.86L51.54 76.87L50.81 78.22L50.00 79.96L49.09 82.02L48.04 84.29L46.86 86.61L45.55 88.74L44.18 90.46L42.81 91.57L41.51 91.89L40.38 91.36L39.49 89.97L38.89 87.83L38.59 85.11L38.57 82.05L38.75 78.89L39.06 75.89L39.38 73.25L39.62 71.11L39.69 69.55L39.53 68.55L39.12 68.04L38.50 67.89L37.71 67.98L36.82 68.14L35.90 68.29L35.00 68.34L34.16 68.28L33.35 68.14L32.53 67.98L31.61 67.87L30.50 67.89L29.13 68.09L27.42 68.47L25.37 68.99L23.03 69.59L20.51 70.16L17.98 70.58L15.63 70.72L13.68 70.51L12.32 69.88L11.69 68.83L11.87 67.41L12.85 65.70L14.54 63.81L16.76 61.86L19.28 59.98L21.87 58.26L24.28 56.76L26.31 55.51L27.82 54.49L28.75 53.68L29.11 53.00L29.00 52.41L28.54 51.84L27.90 51.26L27.20 50.65L26.55 50.00L26.02 49.32L25.60 48.60L25.22 47.87L24.79 47.11L24.19 46.29L23.32 45.38L22.11 44.35L20.55 43.15L18.71 41.78L16.71 40.23L14.74 38.54L12.99 36.80L11.69 35.09L11.02 33.53L11.11 32.24L12.00 31.31L13.65 30.82L15.95 30.77L18.72 31.14L21.74 31.84L24.76 32.74L27.58 33.71L30.02 34.59L31.98 35.26L33.41 35.63L34.36 35.64L34.89 35.32L35.13 34.70L35.22 33.89L35.25 32.98L35.32 32.05L35.49 31.18L35.74 30.38L36.07 29.62L36.41 28.85L36.71 27.95L36.92 26.83L37.02 25.40L37.02 23.59L36.95 21.43L36.89 18.98L36.92 16.39L37.10 13.85L37.52 11.58L38.20 9.81L39.15 8.74L40.34 8.48L41.71 9.10L43.17 10.55L44.64 12.70L46.02 15.35L47.27 18.25L48.35 21.14L49.25 23.77L50.00 25.96L50.64 27.57L51.23 28.57L51.80 29.00L52.41 28.96L53.08 28.61L53.79 28.09L54.55 27.55L55.33 27.08L56.12 26.73L56.90 26.49L57.71 26.29L58.56 26.02L59.50 25.59L60.61 24.90L61.92 23.91L63.46 22.62L65.25 21.10L67.23 19.49L69.32 17.96L71.40 16.70L73.32 15.89L74.94 15.68L76.11 16.15L76.73 17.31L76.76 19.12L76.21 21.44L75.17 24.10L73.78 26.89L72.21 29.61L70.66 32.10L69.29 34.23L68.26 35.92L67.64 37.18L67.48 38.05L67.74 38.60L68.32 38.95L69.12 39.20L70.01 39.44L70.89 39.73L71.69 40.10L72.40 40.53L73.06 41.02L73.75 41.53L74.58 42.01L75.67 42.46L77.10 42.88L78.91 43.28L81.08 43.70L83.51 44.20L86.03 44.82L88.44 45.59L90.49 46.52L91.97 47.60L92.70 48.78L92.55 50.00Z" fill="none" stroke="#B08CC9" stroke-width="1.1" opacity="0.95"/>
      <path d="M87.17 50.00L86.00 51.03L84.10 51.95L81.61 52.72L78.77 53.30L75.83 53.71L73.04 53.99L70.63 54.18L68.75 54.36L67.50 54.60L66.86 54.95L66.77 55.45L67.09 56.10L67.67 56.88L68.32 57.74L68.93 58.64L69.39 59.53L69.66 60.38L69.78 61.17L69.80 61.94L69.83 62.74L69.95 63.64L70.26 64.72L70.78 66.03L71.52 67.59L72.40 69.41L73.31 71.39L74.12 73.44L74.67 75.38L74.83 77.06L74.52 78.30L73.69 78.97L72.35 78.99L70.59 78.34L68.53 77.10L66.31 75.38L64.11 73.39L62.05 71.34L60.26 69.45L58.80 67.90L57.69 66.83L56.90 66.32L56.37 66.35L56.01 66.84L55.74 67.68L55.49 68.70L55.19 69.76L54.82 70.73L54.37 71.55L53.84 72.19L53.27 72.72L52.66 73.21L52.04 73.80L51.41 74.59L50.73 75.67L50.00 77.09L49.18 78.81L48.24 80.72L47.19 82.67L46.05 84.45L44.85 85.85L43.65 86.68L42.55 86.78L41.61 86.09L40.90 84.62L40.47 82.47L40.31 79.81L40.41 76.89L40.68 73.94L41.04 71.20L41.38 68.88L41.60 67.09L41.61 65.90L41.37 65.28L40.87 65.14L40.13 65.35L39.23 65.76L38.23 66.20L37.22 66.58L36.26 66.80L35.39 66.86L34.60 66.78L33.84 66.62L33.05 66.48L32.12 66.41L30.96 66.50L29.53 66.74L27.79 67.12L25.80 67.58L23.64 68.02L21.48 68.33L19.50 68.39L17.89 68.13L16.84 67.50L16.48 66.48L16.87 65.13L17.99 63.53L19.74 61.78L21.96 60.00L24.41 58.31L26.85 56.80L29.05 55.51L30.81 54.46L32.01 53.65L32.60 53.01L32.61 52.50L32.15 52.05L31.36 51.60L30.41 51.12L29.45 50.59L28.61 50.00L27.94 49.37L27.45 48.71L27.08 48.03L26.72 47.33L26.27 46.59L25.60 45.78L24.65 44.86L23.39 43.81L21.87 42.61L20.20 41.25L18.55 39.78L17.11 38.26L16.08 36.79L15.63 35.48L15.88 34.42L16.87 33.71L18.56 33.41L20.82 33.52L23.49 34.01L26.33 34.79L29.12 35.72L31.66 36.68L33.79 37.50L35.41 38.07L36.49 38.29L37.08 38.14L37.28 37.64L37.21 36.84L37.00 35.84L36.80 34.76L36.67 33.70L36.69 32.74L36.84 31.89L37.11 31.15L37.44 30.45L37.75 29.69L38.01 28.77L38.17 27.58L38.24 26.08L38.25 24.26L38.25 22.18L38.31 19.98L38.52 17.82L38.93 15.93L39.58 14.50L40.46 13.71L41.56 13.70L42.81 14.49L44.12 16.05L45.43 18.22L46.65 20.82L47.73 23.60L48.64 26.29L49.39 28.66L50.00 30.53L50.52 31.79L51.01 32.42L51.51 32.47L52.06 32.06L52.68 31.36L53.37 30.53L54.11 29.73L54.87 29.06L55.63 28.58L56.38 28.27L57.13 28.06L57.90 27.87L58.73 27.57L59.69 27.07L60.82 26.30L62.16 25.27L63.70 24.03L65.41 22.70L67.22 21.44L69.01 20.42L70.64 19.81L71.98 19.75L72.88 20.33L73.28 21.54L73.12 23.32L72.43 25.56L71.31 28.08L69.88 30.68L68.34 33.16L66.87 35.38L65.64 37.21L64.79 38.60L64.39 39.54L64.47 40.10L64.98 40.37L65.82 40.46L66.85 40.48L67.95 40.53L69.00 40.66L69.91 40.91L70.68 41.26L71.33 41.69L71.95 42.17L72.63 42.65L73.51 43.10L74.67 43.51L76.17 43.91L77.99 44.33L80.04 44.80L82.17 45.37L84.20 46.08L85.90 46.92L87.06 47.88L87.52 48.93L87.17 50.00Z" fill="none" stroke="#B08CC9" stroke-width="1.1" opacity="0.75"/>
      <path d="M81.77 50.00L80.55 50.87L78.67 51.64L76.28 52.26L73.60 52.71L70.88 53.00L68.37 53.18L66.28 53.30L64.75 53.43L63.86 53.64L63.58 53.99L63.84 54.50L64.48 55.17L65.33 55.97L66.22 56.86L67.00 57.76L67.58 58.64L67.91 59.45L68.02 60.18L67.98 60.84L67.90 61.50L67.88 62.22L68.00 63.08L68.33 64.14L68.86 65.42L69.54 66.93L70.27 68.61L70.93 70.34L71.36 71.98L71.45 73.37L71.11 74.36L70.30 74.82L69.03 74.68L67.39 73.93L65.48 72.64L63.46 70.94L61.48 69.03L59.67 67.12L58.13 65.41L56.92 64.08L56.06 63.28L55.51 63.04L55.19 63.34L55.03 64.11L54.94 65.19L54.82 66.42L54.64 67.65L54.36 68.73L53.97 69.60L53.50 70.23L52.97 70.67L52.41 71.02L51.84 71.39L51.25 71.93L50.65 72.72L50.00 73.81L49.28 75.18L48.47 76.75L47.56 78.38L46.57 79.86L45.54 81.00L44.53 81.62L43.60 81.58L42.83 80.82L42.29 79.34L42.00 77.26L41.96 74.74L42.15 72.01L42.48 69.32L42.87 66.88L43.20 64.88L43.39 63.45L43.34 62.61L43.03 62.35L42.44 62.54L41.61 63.05L40.62 63.72L39.55 64.38L38.50 64.91L37.53 65.25L36.69 65.36L35.97 65.28L35.34 65.09L34.71 64.86L33.99 64.69L33.10 64.64L31.96 64.75L30.55 65.00L28.89 65.33L27.08 65.67L25.26 65.90L23.60 65.92L22.28 65.65L21.47 65.05L21.30 64.11L21.82 62.87L23.01 61.41L24.76 59.83L26.91 58.24L29.22 56.75L31.47 55.44L33.43 54.36L34.91 53.51L35.80 52.88L36.07 52.41L35.76 52.05L34.99 51.72L33.93 51.38L32.75 50.99L31.61 50.53L30.65 50.00L29.92 49.43L29.45 48.82L29.15 48.21L28.94 47.58L28.69 46.94L28.27 46.24L27.60 45.46L26.64 44.57L25.43 43.54L24.06 42.38L22.69 41.13L21.50 39.83L20.68 38.58L20.38 37.48L20.72 36.63L21.74 36.10L23.38 35.96L25.54 36.19L28.04 36.76L30.66 37.57L33.19 38.50L35.43 39.41L37.23 40.15L38.51 40.60L39.26 40.69L39.53 40.39L39.42 39.72L39.08 38.77L38.65 37.64L38.26 36.45L37.99 35.32L37.91 34.32L38.01 33.50L38.26 32.84L38.60 32.27L38.96 31.70L39.28 31.02L39.51 30.12L39.65 28.94L39.71 27.47L39.75 25.75L39.84 23.91L40.04 22.09L40.42 20.51L41.00 19.36L41.80 18.80L42.78 18.95L43.89 19.84L45.05 21.41L46.20 23.54L47.25 26.02L48.16 28.61L48.92 31.06L49.52 33.14L50.00 34.69L50.41 35.60L50.81 35.88L51.24 35.59L51.74 34.86L52.32 33.88L52.97 32.81L53.68 31.82L54.41 31.03L55.13 30.49L55.82 30.19L56.48 30.06L57.14 30.00L57.83 29.88L58.62 29.60L59.56 29.08L60.67 28.31L61.96 27.33L63.41 26.25L64.95 25.21L66.47 24.38L67.84 23.91L68.93 23.95L69.62 24.55L69.84 25.74L69.54 27.45L68.77 29.55L67.61 31.88L66.21 34.25L64.74 36.47L63.38 38.40L62.31 39.93L61.65 41.02L61.47 41.67L61.77 41.95L62.50 41.97L63.54 41.83L64.76 41.67L66.00 41.56L67.14 41.57L68.10 41.73L68.85 42.03L69.42 42.44L69.89 42.90L70.37 43.38L70.99 43.84L71.86 44.26L73.02 44.65L74.48 45.04L76.17 45.47L77.95 45.98L79.65 46.60L81.05 47.33L81.97 48.17L82.24 49.08L81.77 50.00Z" fill="none" stroke="#B08CC9" stroke-width="1.1" opacity="0.75"/>
      <path d="M76.44 50.00L75.25 50.72L73.46 51.34L71.23 51.82L68.76 52.15L66.31 52.34L64.10 52.44L62.33 52.50L61.14 52.59L60.58 52.78L60.62 53.12L61.17 53.63L62.07 54.31L63.13 55.11L64.18 55.99L65.06 56.88L65.68 57.71L66.01 58.45L66.05 59.07L65.91 59.59L65.68 60.08L65.48 60.59L65.42 61.21L65.56 62.00L65.90 63.00L66.41 64.22L67.00 65.60L67.55 67.05L67.91 68.43L67.98 69.59L67.67 70.39L66.93 70.70L65.78 70.46L64.29 69.67L62.58 68.40L60.78 66.77L59.03 64.98L57.47 63.23L56.19 61.72L55.23 60.63L54.60 60.07L54.26 60.08L54.14 60.62L54.14 61.61L54.18 62.87L54.18 64.25L54.09 65.56L53.88 66.67L53.55 67.51L53.12 68.05L52.64 68.35L52.12 68.49L51.60 68.62L51.08 68.87L50.55 69.35L50.00 70.12L49.40 71.18L48.72 72.44L47.96 73.79L47.13 75.04L46.26 76.00L45.42 76.49L44.65 76.39L44.04 75.62L43.63 74.22L43.46 72.27L43.52 69.94L43.77 67.46L44.14 65.05L44.54 62.92L44.86 61.26L45.00 60.16L44.90 59.66L44.52 59.70L43.86 60.17L42.98 60.93L41.94 61.79L40.85 62.60L39.80 63.23L38.87 63.61L38.11 63.73L37.51 63.61L37.05 63.33L36.63 63.00L36.16 62.70L35.54 62.53L34.71 62.51L33.61 62.64L32.28 62.87L30.78 63.14L29.26 63.33L27.86 63.35L26.76 63.12L26.13 62.59L26.08 61.76L26.66 60.66L27.85 59.36L29.53 57.97L31.55 56.58L33.69 55.30L35.71 54.20L37.41 53.31L38.61 52.65L39.21 52.19L39.19 51.87L38.61 51.64L37.60 51.42L36.33 51.17L34.99 50.86L33.76 50.46L32.76 50.00L32.06 49.49L31.67 48.95L31.52 48.41L31.50 47.88L31.48 47.34L31.33 46.77L30.94 46.14L30.27 45.41L29.34 44.57L28.24 43.61L27.10 42.56L26.10 41.47L25.41 40.43L25.20 39.52L25.55 38.84L26.52 38.46L28.06 38.42L30.05 38.74L32.34 39.35L34.70 40.17L36.94 41.07L38.87 41.91L40.35 42.56L41.31 42.89L41.75 42.85L41.74 42.42L41.38 41.62L40.82 40.56L40.21 39.34L39.69 38.10L39.33 36.95L39.20 36.00L39.29 35.26L39.56 34.73L39.95 34.35L40.36 34.02L40.74 33.61L41.04 33.02L41.23 32.17L41.34 31.03L41.40 29.65L41.48 28.12L41.65 26.60L41.97 25.27L42.46 24.32L43.14 23.91L43.99 24.14L44.94 25.04L45.95 26.57L46.92 28.58L47.81 30.89L48.56 33.25L49.17 35.43L49.63 37.21L50.00 38.44L50.31 39.04L50.63 39.00L50.99 38.42L51.44 37.44L51.98 36.24L52.59 35.01L53.26 33.92L53.93 33.09L54.58 32.57L55.18 32.34L55.74 32.34L56.26 32.45L56.80 32.54L57.40 32.49L58.12 32.22L59.00 31.70L60.05 30.95L61.25 30.08L62.53 29.21L63.81 28.51L64.96 28.13L65.85 28.19L66.37 28.77L66.46 29.87L66.09 31.43L65.28 33.35L64.14 35.45L62.79 37.57L61.42 39.52L60.21 41.16L59.30 42.40L58.82 43.20L58.84 43.58L59.33 43.62L60.24 43.42L61.43 43.11L62.76 42.79L64.08 42.57L65.25 42.50L66.17 42.61L66.83 42.89L67.25 43.28L67.52 43.75L67.76 44.23L68.10 44.69L68.64 45.10L69.47 45.47L70.60 45.83L71.96 46.20L73.44 46.63L74.86 47.15L76.04 47.76L76.79 48.47L76.95 49.23L76.44 50.00Z" fill="none" stroke="#C3A4D8" stroke-width="1.1" opacity="0.75"/>
      <path d="M71.25 50.00L70.16 50.58L68.53 51.06L66.51 51.42L64.29 51.64L62.12 51.74L60.22 51.77L58.76 51.78L57.88 51.83L57.61 52.00L57.93 52.33L58.71 52.83L59.79 53.49L60.99 54.28L62.13 55.12L63.04 55.96L63.64 56.71L63.89 57.33L63.83 57.81L63.54 58.17L63.14 58.45L62.77 58.73L62.52 59.10L62.48 59.63L62.67 60.36L63.05 61.31L63.54 62.43L64.03 63.63L64.38 64.80L64.49 65.79L64.25 66.45L63.63 66.67L62.64 66.40L61.35 65.62L59.85 64.41L58.29 62.90L56.79 61.26L55.47 59.69L54.43 58.39L53.70 57.52L53.28 57.18L53.12 57.39L53.16 58.13L53.31 59.26L53.46 60.64L53.55 62.08L53.53 63.41L53.37 64.48L53.08 65.22L52.70 65.61L52.26 65.70L51.79 65.61L51.33 65.47L50.88 65.42L50.45 65.60L50.00 66.07L49.52 66.84L48.98 67.86L48.37 68.99L47.70 70.07L46.99 70.92L46.30 71.36L45.69 71.27L45.21 70.58L44.92 69.31L44.85 67.55L44.98 65.47L45.27 63.25L45.66 61.14L46.06 59.33L46.35 57.99L46.46 57.20L46.32 56.98L45.89 57.28L45.19 57.98L44.27 58.91L43.23 59.91L42.15 60.80L41.16 61.47L40.32 61.84L39.69 61.90L39.26 61.70L39.00 61.32L38.81 60.87L38.61 60.45L38.28 60.15L37.75 60.02L36.95 60.06L35.91 60.24L34.69 60.47L33.40 60.67L32.21 60.73L31.27 60.57L30.75 60.16L30.75 59.47L31.32 58.53L32.44 57.42L34.01 56.23L35.86 55.05L37.79 53.97L39.57 53.06L41.01 52.36L41.95 51.87L42.29 51.56L42.02 51.38L41.23 51.26L40.05 51.14L38.65 50.98L37.23 50.73L35.98 50.40L35.01 50.00L34.41 49.55L34.16 49.09L34.21 48.64L34.42 48.21L34.66 47.79L34.77 47.37L34.66 46.89L34.26 46.34L33.58 45.68L32.68 44.92L31.71 44.06L30.83 43.16L30.21 42.29L29.99 41.55L30.30 41.00L31.15 40.73L32.52 40.78L34.31 41.14L36.34 41.76L38.42 42.56L40.36 43.41L41.99 44.18L43.16 44.73L43.84 44.96L44.01 44.81L43.76 44.27L43.20 43.39L42.48 42.26L41.75 41.01L41.14 39.78L40.75 38.68L40.61 37.82L40.72 37.23L41.04 36.89L41.48 36.74L41.96 36.67L42.40 36.55L42.75 36.27L42.98 35.73L43.11 34.90L43.16 33.82L43.21 32.56L43.32 31.27L43.54 30.12L43.92 29.30L44.47 28.96L45.16 29.20L45.96 30.05L46.79 31.46L47.60 33.30L48.32 35.39L48.93 37.51L49.39 39.41L49.74 40.89L50.00 41.83L50.22 42.14L50.47 41.84L50.77 41.03L51.16 39.86L51.65 38.52L52.21 37.21L52.82 36.10L53.42 35.30L53.98 34.86L54.47 34.77L54.89 34.94L55.26 35.26L55.62 35.57L56.02 35.76L56.52 35.72L57.17 35.41L57.99 34.86L58.96 34.14L60.02 33.39L61.08 32.75L62.04 32.39L62.78 32.41L63.19 32.89L63.20 33.85L62.79 35.23L62.00 36.93L60.90 38.78L59.65 40.63L58.40 42.29L57.32 43.65L56.58 44.62L56.27 45.16L56.45 45.32L57.09 45.15L58.12 44.78L59.41 44.32L60.80 43.90L62.12 43.61L63.23 43.49L64.06 43.58L64.57 43.84L64.79 44.24L64.82 44.71L64.78 45.20L64.82 45.65L65.05 46.04L65.57 46.38L66.39 46.68L67.47 46.98L68.70 47.31L69.92 47.71L70.95 48.20L71.60 48.76L71.73 49.38L71.25 50.00Z" fill="none" stroke="#B08CC9" stroke-width="1.1" opacity="0.75"/>
    <circle cx="50" cy="50" r="4.4" fill="#B08CC9"/>
  </g>

  <text x="336" y="158" font-family="'IBM Plex Sans','Helvetica Neue',Arial,sans-serif" font-weight="700" font-size="88" letter-spacing="-1.8" fill="#ECE9EB">Rosette</text>
  <text x="340" y="200" font-family="'IBM Plex Sans','Helvetica Neue',Arial,sans-serif" font-weight="400" font-size="23" fill="#948D91">A private messenger for the Chat Control era.</text>
</svg>
